<mxfile host="app.diagrams.net" modified="2024-03-01T02:15:51.960Z" agent="Mozilla/5.0 (Windows NT 10.0; Win64; x64) AppleWebKit/537.36 (KHTML, like Gecko) Chrome/122.0.0.0 Safari/537.36" version="24.0.0" etag="9WMku18JbEBWKHQPH03e" type="github">
  <diagram name="PÃ¡gina-1" id="jgFdEm9jXOz1PO3E1xv2">
    <mxGraphModel>
      <root>
        <mxCell id="0" />
        <mxCell id="1" parent="0" />
      </root>
    </mxGraphModel>
  </diagram>
</mxfile>
